<svg width="20" height="20" viewBox="0 0 20 20" fill="none" xmlns="http://www.w3.org/2000/svg">
<path d="M6.93456 14.6015C7.88673 15.7772 9.1182 16.4159 10.499 16.7676C11.2486 16.9588 13.188 16.632 13.687 17.0706C14.7382 18.0232 15.9443 18.6258 17.2839 18.9298C17.4058 18.9572 17.5307 18.9747 17.6541 18.9938C17.8105 19.0184 17.9385 18.9719 18.0188 18.8144C18.0985 18.6569 18.0695 18.5137 17.97 18.3835C17.8542 18.2326 17.7364 18.0828 17.61 17.9439C17.2427 17.5421 16.9519 17.0695 16.7509 16.5531C16.6068 16.1828 16.7678 15.7814 17.0829 15.5393C17.1495 15.4881 17.2153 15.4359 17.2799 15.3819C17.8827 14.8827 18.3834 14.2855 18.6902 13.5265C19.1883 12.296 19.0761 11.1083 18.423 9.979C17.911 9.0935 17.2114 8.4587 16.3918 8M2.7201 9.3819C2.78468 9.4359 2.85049 9.4881 2.9171 9.5393C3.23224 9.7814 3.39317 10.1828 3.24906 10.5531C3.04814 11.0695 2.75727 11.5421 2.39004 11.9439C2.2636 12.0828 2.14578 12.2326 2.03 12.3835C1.93046 12.5137 1.90152 12.657 1.98125 12.8144C2.06148 12.9719 2.18946 13.0184 2.34586 12.9938C2.46927 12.9747 2.59419 12.9572 2.71607 12.9298C4.05575 12.6258 5.26179 12.0232 6.31298 11.0706C6.81196 10.632 8.7514 10.9588 9.501 10.7676C10.8818 10.4159 12.1133 9.7772 13.0654 8.6015C14.2405 7.15016 14.3152 5.19248 13.2457 3.66122C12.4998 2.59431 11.4933 1.92552 10.3385 1.50881C8.3645 0.79626 6.38964 0.83455 4.43752 1.60834C3.25983 2.0748 2.25438 2.80764 1.57695 3.979C0.923879 5.10833 0.811668 6.29603 1.30984 7.52645C1.6166 8.2855 2.11732 8.8827 2.7201 9.3819Z" stroke="#484C52" stroke-width="1.25" stroke-linecap="round"/>
</svg>
