<?xml version="1.0"?>
<svg width="20" height="20" xmlns="http://www.w3.org/2000/svg" xmlns:svg="http://www.w3.org/2000/svg" xmlns:xlink="http://www.w3.org/1999/xlink">
 <g class="layer">
  <title>Layer 1</title>
  <use fill="#ffffff" id="svg_4" transform="matrix(0.916587 0 0 0.958384 1.16746 0.249982)" x="0" xlink:href="#svg_3" y="0"/>
  <text fill="#ff0000" font-family="Serif" font-size="24" font-weight="bold" id="svg_2" stroke="#ffffff" stroke-width="0" text-anchor="middle" transform="matrix(0.998738 0 0 0.557974 46.058 -77.1874)" x="-31.1" xml:space="preserve" y="156.11">!</text>
 </g>
 <defs>
  <symbol height="20" id="svg_3" viewBox="0 0 20 20" width="20" xmlns="http://www.w3.org/2000/svg">
   <path d="m6.93,14.6c0.96,1.18 2.19,1.82 3.57,2.17c0.75,0.19 2.69,-0.14 3.19,0.3c1.05,0.95 2.25,1.56 3.59,1.86c0.13,0.03 0.25,0.04 0.37,0.06c0.16,0.03 0.29,-0.02 0.37,-0.18c0.08,-0.15 0.05,-0.3 -0.05,-0.43c-0.12,-0.15 -0.23,-0.3 -0.36,-0.44c-0.37,-0.4 -0.66,-0.87 -0.86,-1.39c-0.14,-0.37 0.02,-0.77 0.33,-1.01c0.07,-0.05 0.14,-0.1 0.2,-0.16c0.6,-0.5 1.1,-1.09 1.41,-1.85c0.5,-1.23 0.39,-2.42 -0.27,-3.55c-0.51,-0.89 -1.21,-1.52 -2.03,-1.98m-13.67,1.38c0.06,0.06 0.13,0.11 0.2,0.16c0.31,0.24 0.47,0.64 0.33,1.01c-0.2,0.52 -0.49,0.99 -0.86,1.39c-0.13,0.14 -0.24,0.29 -0.36,0.44c-0.1,0.13 -0.13,0.28 -0.05,0.43c0.08,0.16 0.21,0.21 0.37,0.18c0.12,-0.02 0.24,-0.03 0.37,-0.06c1.34,-0.3 2.54,-0.91 3.59,-1.86c0.5,-0.44 2.44,-0.11 3.19,-0.3c1.38,-0.35 2.61,-0.99 3.57,-2.17c1.17,-1.45 1.25,-3.41 0.18,-4.94c-0.75,-1.07 -1.76,-1.73 -2.91,-2.15c-1.98,-0.71 -3.95,-0.68 -5.9,0.1c-1.18,0.46 -2.19,1.2 -2.86,2.37c-0.66,1.13 -0.77,2.32 -0.27,3.55c0.31,0.76 0.81,1.35 1.41,1.85z" stroke="#484C52" stroke-linecap="round" stroke-width="1.25"/>
  </symbol>
 </defs>
</svg>