<svg width="15" height="21" viewBox="0 0 15 21" fill="none" xmlns="http://www.w3.org/2000/svg">
<path d="M9.82418 15.0139V17.7917C9.82418 18.9423 8.89144 19.875 7.74085 19.875H7.32506C6.18472 19.875 5.25628 18.9582 5.24189 17.818L5.2065 15.0139M9.82418 15.0139H5.2065M9.82418 15.0139C9.82418 14.173 10.351 13.4399 11.0358 12.9518C12.675 11.7835 13.75 9.82515 13.75 7.60648C13.75 4.02686 10.9518 1.125 7.5 1.125C4.04822 1.125 1.25 4.02686 1.25 7.60648C1.25 9.83682 2.3363 11.804 3.99014 12.9702C4.66435 13.4456 5.18757 14.157 5.20579 14.9818L5.2065 15.0139M7.5 3.72917C9.51354 3.72917 11.1458 5.42192 11.1458 7.51003" stroke="#1A4EC0" stroke-width="2" stroke-linecap="round" stroke-linejoin="round"/>
</svg>
