<svg width="19" height="18" viewBox="0 0 19 18" fill="none" xmlns="http://www.w3.org/2000/svg">
<path d="M15.75 10.5417V16.7917M9.5 7.93758V16.7917M3.25 13.6667V16.7917M4.29167 7.81461C4.01523 7.56719 3.65018 7.41675 3.25 7.41675C2.38705 7.41675 1.6875 8.1163 1.6875 8.97925C1.6875 9.84219 2.38705 10.5417 3.25 10.5417C4.11294 10.5417 4.8125 9.84219 4.8125 8.97925C4.8125 8.51649 4.61133 8.10071 4.29167 7.81461ZM4.29167 7.81461L8.33536 3.77091M8.33536 3.77091C8.62146 4.09058 9.03724 4.29175 9.5 4.29175C10.1803 4.29175 10.7591 3.85695 10.9736 3.25008M8.33536 3.77091C8.08794 3.49448 7.9375 3.12943 7.9375 2.72925C7.9375 1.8663 8.63705 1.16675 9.5 1.16675C10.3629 1.16675 11.0625 1.8663 11.0625 2.72925C11.0625 2.91187 11.0312 3.08718 10.9736 3.25008M10.9736 3.25008L14.2385 4.41507M14.2385 4.41507C14.2052 4.54199 14.1875 4.67521 14.1875 4.81258C14.1875 5.67553 14.8871 6.37508 15.75 6.37508C16.6129 6.37508 17.3125 5.67553 17.3125 4.81258C17.3125 3.94964 16.6129 3.25008 15.75 3.25008C15.0244 3.25008 14.4144 3.74465 14.2385 4.41507Z" stroke="#1A4EC0" stroke-width="2" stroke-linecap="round" stroke-linejoin="round"/>
</svg>
