<svg width="18" height="20" viewBox="0 0 18 20" fill="none" xmlns="http://www.w3.org/2000/svg">
<path d="M16.2918 16.7501V8.23803C16.2918 7.68549 16.062 7.16828 15.6346 6.81812C14.5114 5.89795 12.2259 4.06907 10.4074 2.44347C9.59573 1.71798 8.36192 1.67215 7.53538 2.38061L2.43601 6.7515C1.97425 7.14729 1.7085 7.7251 1.7085 8.33328V16.7501C1.7085 17.9007 2.64124 18.8334 3.79183 18.8334H4.31266C5.46326 18.8334 6.396 17.9007 6.396 16.7501V14.6667C6.396 13.5162 7.32874 12.5834 8.47933 12.5834H9.521C10.6716 12.5834 11.6043 13.5162 11.6043 14.6667V16.7501C11.6043 17.9007 12.5371 18.8334 13.6877 18.8334H14.2085C15.3591 18.8334 16.2918 17.9007 16.2918 16.7501Z" stroke="#484C52" stroke-width="2" stroke-linecap="round" stroke-linejoin="round"/>
</svg>
