<svg width="16" height="20" viewBox="0 0 16 20" fill="none" xmlns="http://www.w3.org/2000/svg">
<path d="M15.52 8.53454C15.52 11.4864 11.8666 16.3752 9.74307 18.9673C8.96619 19.9157 7.55381 19.9157 6.77693 18.9673C4.65345 16.3752 1 11.4864 1 8.53454C1 4.37333 4.25041 1 8.26 1C12.2696 1 15.52 4.37333 15.52 8.53454Z" stroke="#484C52" stroke-width="0.5" stroke-linecap="round" stroke-linejoin="round"/>
<path d="M10.957 8.26006C10.957 9.74933 9.74968 10.9566 8.26041 10.9566C6.77113 10.9566 5.56383 9.74933 5.56383 8.26006C5.56383 6.77078 6.77113 5.56349 8.26041 5.56349C9.74968 5.56349 10.957 6.77078 10.957 8.26006Z" stroke="#484C52" stroke-width="0.5" stroke-linecap="round" stroke-linejoin="round"/>
</svg>
