<svg width="16" height="13" viewBox="0 0 16 13" fill="none" xmlns="http://www.w3.org/2000/svg">
<path d="M0.999984 2.67732C0.999984 3.96004 4.24953 4.9999 8.25805 4.9999C12.2666 4.9999 15.5161 3.96004 15.5161 2.67732M0.999984 2.67732C0.999984 1.39459 4.24953 0.354736 8.25805 0.354736C12.2666 0.354736 15.5161 1.39459 15.5161 2.67732M0.999984 2.67732V4.9999M15.5161 2.67732V4.9999M0.999984 4.9999C0.999984 6.28262 4.24953 7.32248 8.25805 7.32248C12.2666 7.32248 15.5161 6.28262 15.5161 4.9999M0.999984 4.9999V7.32248M15.5161 4.9999V7.32248M0.999984 7.32248C0.999984 8.6052 4.24953 9.64506 8.25805 9.64506C12.2666 9.64506 15.5161 8.6052 15.5161 7.32248M0.999984 7.32248V9.64506C0.999984 10.9278 4.24953 11.9676 8.25805 11.9676C12.2666 11.9676 15.5161 10.9278 15.5161 9.64506V7.32248" stroke="#484C52" stroke-width="0.5" stroke-linecap="round" stroke-linejoin="round"/>
</svg>
